<svg width="320" height="320" fill="none" xmlns="http://www.w3.org/2000/svg">
  <path opacity=".2" fill-rule="evenodd" clip-rule="evenodd" d="M320 160v160H0V171a162 162 0 0 1 0-22V0h149a163 163 0 0 1 22 0h149v160Zm-2-78v53c-3-19-9-37-18-53h18Zm0 67c-2-25-9-47-20-67h-58v77h78v-10Zm0-69h-20c-13-24-34-44-58-58V2h78v78Zm-21 0c-14-24-33-43-57-57v57h57ZM239 2v19c-17-10-35-16-54-19h54Zm0 20c-21-11-43-18-68-20h-10v78h78V22ZM81 2h54c-19 3-37 9-54 19V2Zm68 0c-25 2-47 9-68 20v58h78V2h-10ZM80 2v20C56 36 35 56 22 80H2V2h78Zm0 21C56 37 37 56 23 80h57V23ZM2 82h18c-9 16-15 34-18 53V82Zm0 79v10c2 24 9 48 21 68h57v-78H2Zm0 78v-55c3 20 10 38 19 55H2Zm0 2h20c14 23 34 43 58 57v21H2v-78Zm79 78v-20c19 10 41 17 63 20H81Zm0-22c23 13 50 21 78 21v-77H81v56Zm158 22h-63c22-3 44-10 63-20v20Zm-78-1c28 0 55-8 78-21v-56h-78v77Zm79 1v-21c24-14 44-34 58-57h20v78h-78Zm0-23c23-14 42-33 56-55h-56v55Zm0-57h57c12-20 19-44 21-68v-10h-78v78Zm78-55c-3 20-10 38-19 55h19v-55ZM24 241c14 22 33 41 56 55v-55H24ZM22 82c-11 20-18 42-20 67v10h78V82H22Zm59 0h78v5H99v72H81V82Zm18 79H81v78h78v-78h-34v72H99v-72Zm26-2h34v-46h-34v46Zm36-72h63v72h15V82h-78v5Zm63 74h15v78h-78v-78h37v72h26v-72Zm-26-2v-46h-37v46h37Z" fill="#fff"/>
</svg>
